ISO-10303-21;
HEADER;
FILE_DESCRIPTION (( 'STEP AP203' ),
    '1' );
FILE_NAME ('91166A190_Zinc-Plated Steel Washer.STEP',
    '2022-11-23T19:25:34',
    ( 'Administrator' ),
    ( 'Managed by Terraform' ),
    'SwSTEP 2.0',
    'SolidWorks 2017',
    '' );
FILE_SCHEMA (( 'CONFIG_CONTROL_DESIGN' ));
ENDSEC;

DATA;
#1 = ORIENTED_EDGE ( 'NONE', *, *, #181, .F. ) ;
#2 = EDGE_LOOP ( 'NONE', ( #311, #61 ) ) ;
#3 = AXIS2_PLACEMENT_3D ( 'NONE', #406, #194, #329 ) ;
#4 = PERSON_AND_ORGANIZATION ( #195, #125 ) ;
#5 = CIRCLE ( 'NONE', #215, 2.940000000000002600 ) ;
#6 = ORIENTED_EDGE ( 'NONE', *, *, #358, .T. ) ;
#7 = TOROIDAL_SURFACE ( 'NONE', #292, 2.940000000000002600, 0.05999999999999999800 ) ;
#8 = CC_DESIGN_PERSON_AND_ORGANIZATION_ASSIGNMENT ( #4, #68, ( #174 ) ) ;
#9 = EDGE_CURVE ( 'NONE', #60, #164, #126, .T. ) ;
#10 = VERTEX_POINT ( 'NONE', #12 ) ;
#11 = AXIS2_PLACEMENT_3D ( 'NONE', #382, #275, #198 ) ;
#12 = CARTESIAN_POINT ( 'NONE',  ( 1.350000000000000500, 0.0000000000000000000, -0.2399999999999930000 ) ) ;
#13 = DIRECTION ( 'NONE',  ( 0.0000000000000000000, -1.000000000000000000, 0.0000000000000000000 ) ) ;
#14 = DIRECTION ( 'NONE',  ( 1.000000000000000000, 0.0000000000000000000, 0.0000000000000000000 ) ) ;
#15 = CIRCLE ( 'NONE', #319, 3.000000000000002700 ) ;
#16 = ORIENTED_EDGE ( 'NONE', *, *, #374, .F. ) ;
#17 = DIRECTION ( 'NONE',  ( -1.000000000000000000, 1.224646799147351500E-016, 0.0000000000000000000 ) ) ;
#18 = CARTESIAN_POINT ( 'NONE',  ( 1.410000000000000400, 0.0000000000000000000, 0.3000000000000064300 ) ) ;
#19 = CARTESIAN_POINT ( 'NONE',  ( 0.0000000000000000000, 0.0000000000000000000, -0.2399999999999930000 ) ) ;
#20 = DIRECTION ( 'NONE',  ( -0.0000000000000000000, -0.0000000000000000000, -1.000000000000000000 ) ) ;
#21 = EDGE_CURVE ( 'NONE', #387, #127, #44, .T. ) ;
#22 = EDGE_CURVE ( 'NONE', #72, #60, #431, .T. ) ;
#23 = ORIENTED_EDGE ( 'NONE', *, *, #211, .T. ) ;
#24 = DIRECTION ( 'NONE',  ( 1.000000000000000000, 0.0000000000000000000, 0.0000000000000000000 ) ) ;
#25 = CARTESIAN_POINT ( 'NONE',  ( 0.0000000000000000000, 0.0000000000000000000, 0.3000000000000064300 ) ) ;
#26 = DATE_AND_TIME ( #80, #186 ) ;
#27 = AXIS2_PLACEMENT_3D ( 'NONE', #264, #326, #364 ) ;
#28 = CIRCLE ( 'NONE', #297, 1.410000000000000400 ) ;
#29 = EDGE_LOOP ( 'NONE', ( #16, #153, #339, #53 ) ) ;
#30 = FACE_OUTER_BOUND ( 'NONE', #241, .T. ) ;
#31 = CARTESIAN_POINT ( 'NONE',  ( 0.0000000000000000000, 0.0000000000000000000, 0.2400000000000064900 ) ) ;
#32 = CC_DESIGN_APPROVAL ( #276, ( #174 ) ) ;
#33 = DIRECTION ( 'NONE',  ( -0.0000000000000000000, -0.0000000000000000000, -1.000000000000000000 ) ) ;
#34 = DIRECTION ( 'NONE',  ( 0.0000000000000000000, 0.0000000000000000000, 1.000000000000000000 ) ) ;
#35 = CIRCLE ( 'NONE', #173, 0.05999999999999994200 ) ;
#36 = DIRECTION ( 'NONE',  ( 1.000000000000000000, 0.0000000000000000000, 0.0000000000000000000 ) ) ;
#37 = DATE_TIME_ROLE ( 'creation_date' ) ;
#38 = DIRECTION ( 'NONE',  ( 1.000000000000000000, 0.0000000000000000000, 0.0000000000000000000 ) ) ;
#39 = AXIS2_PLACEMENT_3D ( 'NONE', #314, #349, #419 ) ;
#40 = SECURITY_CLASSIFICATION ( '', '', #418 ) ;
#41 = CIRCLE ( 'NONE', #187, 0.05999999999999999800 ) ;
#42 = LINE ( 'NONE', #403, #77 ) ;
#43 = ORIENTED_EDGE ( 'NONE', *, *, #141, .T. ) ;
#44 = CIRCLE ( 'NONE', #231, 0.06000000000000015700 ) ;
#45 = EDGE_CURVE ( 'NONE', #224, #72, #5, .T. ) ;
#46 = LOCAL_TIME ( 13, 25, 34.00000000000000000, #421 ) ;
#47 = EDGE_LOOP ( 'NONE', ( #300, #203, #272, #355 ) ) ;
#48 = AXIS2_PLACEMENT_3D ( 'NONE', #441, #302, #24 ) ;
#49 = CARTESIAN_POINT ( 'NONE',  ( 2.940000000000002600, 0.0000000000000000000, -0.2999999999999929900 ) ) ;
#50 = DIRECTION ( 'NONE',  ( 1.000000000000000000, 0.0000000000000000000, 0.0000000000000000000 ) ) ;
#51 = CC_DESIGN_PERSON_AND_ORGANIZATION_ASSIGNMENT ( #145, #244, ( #40 ) ) ;
#52 = DIRECTION ( 'NONE',  ( -0.0000000000000000000, -0.0000000000000000000, -1.000000000000000000 ) ) ;
#53 = ORIENTED_EDGE ( 'NONE', *, *, #358, .F. ) ;
#54 = CARTESIAN_POINT ( 'NONE',  ( 2.940000000000002600, 0.0000000000000000000, 0.3000000000000064300 ) ) ;
#55 = DIRECTION ( 'NONE',  ( 1.000000000000000000, 0.0000000000000000000, 0.0000000000000000000 ) ) ;
#56 = PERSON_AND_ORGANIZATION ( #195, #125 ) ;
#57 = AXIS2_PLACEMENT_3D ( 'NONE', #233, #227, #413 ) ;
#58 = APPLICATION_PROTOCOL_DEFINITION ( 'international standard', 'config_control_design', 1994, #242 ) ;
#59 = ADVANCED_BREP_SHAPE_REPRESENTATION ( '91166A190_Zinc-Plated Steel Washer', ( #108, #148 ), #425 ) ;
#60 = VERTEX_POINT ( 'NONE', #218 ) ;
#61 = ORIENTED_EDGE ( 'NONE', *, *, #442, .T. ) ;
#62 = DIRECTION ( 'NONE',  ( 0.0000000000000000000, -1.000000000000000000, 0.0000000000000000000 ) ) ;
#63 = CARTESIAN_POINT ( 'NONE',  ( -1.350000000000000500, 1.653273178848927400E-016, -0.2399999999999930000 ) ) ;
#64 = PERSON_AND_ORGANIZATION ( #195, #125 ) ;
#65 = MECHANICAL_CONTEXT ( 'NONE', #237, 'mechanical' ) ;
#66 = ORIENTED_EDGE ( 'NONE', *, *, #295, .T. ) ;
#67 = CARTESIAN_POINT ( 'NONE',  ( 0.0000000000000000000, 0.0000000000000000000, 0.2400000000000064900 ) ) ;
#68 = PERSON_AND_ORGANIZATION_ROLE ( 'creator' ) ;
#69 = EDGE_CURVE ( 'NONE', #426, #217, #296, .T. ) ;
#70 = CC_DESIGN_APPROVAL ( #222, ( #40 ) ) ;
#71 = CIRCLE ( 'NONE', #411, 3.000000000000002700 ) ;
#72 = VERTEX_POINT ( 'NONE', #49 ) ;
#73 = AXIS2_PLACEMENT_3D ( 'NONE', #436, #449, #346 ) ;
#74 = ORIENTED_EDGE ( 'NONE', *, *, #86, .F. ) ;
#75 = ADVANCED_FACE ( 'NONE', ( #247 ), #132, .F. ) ;
#76 = APPROVAL_DATE_TIME ( #220, #276 ) ;
#77 = VECTOR ( 'NONE', #245, 1000.000000000000000 ) ;
#78 = ORIENTED_EDGE ( 'NONE', *, *, #434, .F. ) ;
#79 = DIRECTION ( 'NONE',  ( 0.0000000000000000000, 0.0000000000000000000, 1.000000000000000000 ) ) ;
#80 = CALENDAR_DATE ( 2022, 23, 11 ) ;
#81 = CARTESIAN_POINT ( 'NONE',  ( 0.0000000000000000000, 0.0000000000000000000, -0.2999999999999929900 ) ) ;
#82 = EDGE_LOOP ( 'NONE', ( #78, #113, #172, #236 ) ) ;
#83 = CARTESIAN_POINT ( 'NONE',  ( 0.0000000000000000000, 0.0000000000000000000, -0.2399999999999930000 ) ) ;
#84 = DIRECTION ( 'NONE',  ( 0.0000000000000000000, 0.0000000000000000000, 1.000000000000000000 ) ) ;
#85 = VECTOR ( 'NONE', #367, 1000.000000000000000 ) ;
#86 = EDGE_CURVE ( 'NONE', #164, #387, #287, .T. ) ;
#87 = DIRECTION ( 'NONE',  ( 1.000000000000000000, 0.0000000000000000000, 0.0000000000000000000 ) ) ;
#88 = AXIS2_PLACEMENT_3D ( 'NONE', #81, #298, #188 ) ;
#89 = DIRECTION ( 'NONE',  ( 0.0000000000000000000, 0.0000000000000000000, 1.000000000000000000 ) ) ;
#90 = CIRCLE ( 'NONE', #114, 0.05999999999999994200 ) ;
#91 = EDGE_LOOP ( 'NONE', ( #368, #405, #345, #115 ) ) ;
#92 = DIRECTION ( 'NONE',  ( 1.000000000000000000, 0.0000000000000000000, 0.0000000000000000000 ) ) ;
#93 = CARTESIAN_POINT ( 'NONE',  ( 0.0000000000000000000, 0.0000000000000000000, 0.3000000000000064300 ) ) ;
#94 = DATE_AND_TIME ( #176, #46 ) ;
#95 = AXIS2_PLACEMENT_3D ( 'NONE', #399, #13, #185 ) ;
#96 = VERTEX_POINT ( 'NONE', #154 ) ;
#97 = ORIENTED_EDGE ( 'NONE', *, *, #45, .F. ) ;
#98 = DIRECTION ( 'NONE',  ( 1.000000000000000000, 0.0000000000000000000, -0.0000000000000000000 ) ) ;
#99 = DIRECTION ( 'NONE',  ( 0.0000000000000000000, 0.0000000000000000000, 1.000000000000000000 ) ) ;
#100 = FACE_BOUND ( 'NONE', #360, .T. ) ;
#101 = DIRECTION ( 'NONE',  ( 0.0000000000000000000, 0.0000000000000000000, 1.000000000000000000 ) ) ;
#102 = ORIENTED_EDGE ( 'NONE', *, *, #361, .T. ) ;
#103 = AXIS2_PLACEMENT_3D ( 'NONE', #93, #376, #98 ) ;
#104 = ADVANCED_FACE ( 'NONE', ( #213 ), #395, .T. ) ;
#105 = FACE_OUTER_BOUND ( 'NONE', #359, .T. ) ;
#106 = ORIENTED_EDGE ( 'NONE', *, *, #69, .T. ) ;
#107 = DESIGN_CONTEXT ( 'detailed design', #242, 'design' ) ;
#108 = MANIFOLD_SOLID_BREP ( 'Fillet1', #320 ) ;
#109 = EDGE_CURVE ( 'NONE', #263, #127, #120, .T. ) ;
#110 = ORIENTED_EDGE ( 'NONE', *, *, #141, .F. ) ;
#111 = ADVANCED_FACE ( 'NONE', ( #324 ), #196, .T. ) ;
#112 = DATE_AND_TIME ( #342, #170 ) ;
#113 = ORIENTED_EDGE ( 'NONE', *, *, #396, .F. ) ;
#114 = AXIS2_PLACEMENT_3D ( 'NONE', #385, #284, #166 ) ;
#115 = ORIENTED_EDGE ( 'NONE', *, *, #261, .F. ) ;
#116 = DIRECTION ( 'NONE',  ( 1.000000000000000000, 0.0000000000000000000, 0.0000000000000000000 ) ) ;
#117 = CARTESIAN_POINT ( 'NONE',  ( 0.0000000000000000000, 0.0000000000000000000, -0.2999999999999929900 ) ) ;
#118 = CARTESIAN_POINT ( 'NONE',  ( 2.940000000000002600, 0.0000000000000000000, 0.2400000000000064900 ) ) ;
#119 = DIRECTION ( 'NONE',  ( 1.000000000000000000, 0.0000000000000000000, 0.0000000000000000000 ) ) ;
#120 = CIRCLE ( 'NONE', #3, 2.940000000000002600 ) ;
#121 = DIRECTION ( 'NONE',  ( 1.000000000000000000, 0.0000000000000000000, 0.0000000000000000000 ) ) ;
#122 = EDGE_CURVE ( 'NONE', #10, #438, #373, .T. ) ;
#123 = CARTESIAN_POINT ( 'NONE',  ( -3.000000000000002700, 3.673940397442062800E-016, -0.2999999999999929900 ) ) ;
#124 = APPROVAL_PERSON_ORGANIZATION ( #255, #322, #317 ) ;
#125 = ORGANIZATION ( 'UNSPECIFIED', 'UNSPECIFIED', '' ) ;
#126 = LINE ( 'NONE', #291, #230 ) ;
#127 = VERTEX_POINT ( 'NONE', #415 ) ;
#128 =( LENGTH_UNIT ( ) NAMED_UNIT ( * ) SI_UNIT ( .MILLI., .METRE. ) );
#129 = CIRCLE ( 'NONE', #306, 0.05999999999999999800 ) ;
#130 = CARTESIAN_POINT ( 'NONE',  ( -1.410000000000000400, 1.726751986797768600E-016, 0.3000000000000064300 ) ) ;
#131 = DIRECTION ( 'NONE',  ( 1.000000000000000000, 0.0000000000000000000, 0.0000000000000000000 ) ) ;
#132 = CYLINDRICAL_SURFACE ( 'NONE', #27, 1.350000000000000500 ) ;
#133 = DIRECTION ( 'NONE',  ( 1.000000000000000000, 0.0000000000000000000, 0.0000000000000000000 ) ) ;
#134 = PERSON_AND_ORGANIZATION_ROLE ( 'design_supplier' ) ;
#135 = FACE_OUTER_BOUND ( 'NONE', #451, .T. ) ;
#136 = AXIS2_PLACEMENT_3D ( 'NONE', #407, #232, #270 ) ;
#137 = DIRECTION ( 'NONE',  ( 1.000000000000000000, 0.0000000000000000000, 0.0000000000000000000 ) ) ;
#138 = CIRCLE ( 'NONE', #354, 0.06000000000000015700 ) ;
#139 = ORIENTED_EDGE ( 'NONE', *, *, #447, .F. ) ;
#140 = ORIENTED_EDGE ( 'NONE', *, *, #434, .T. ) ;
#141 = EDGE_CURVE ( 'NONE', #214, #432, #28, .T. ) ;
#142 = DIRECTION ( 'NONE',  ( 0.0000000000000000000, 0.0000000000000000000, 1.000000000000000000 ) ) ;
#143 = ADVANCED_FACE ( 'NONE', ( #182 ), #171, .T. ) ;
#144 = ORIENTED_EDGE ( 'NONE', *, *, #45, .T. ) ;
#145 = PERSON_AND_ORGANIZATION ( #195, #125 ) ;
#146 = EDGE_LOOP ( 'NONE', ( #400, #102, #106, #321 ) ) ;
#147 = ORIENTED_EDGE ( 'NONE', *, *, #221, .T. ) ;
#148 = AXIS2_PLACEMENT_3D ( 'NONE', #204, #99, #131 ) ;
#149 = DIRECTION ( 'NONE',  ( -1.000000000000000000, 1.224646799147355700E-016, 0.0000000000000000000 ) ) ;
#150 = PERSON_AND_ORGANIZATION ( #195, #125 ) ;
#151 = CARTESIAN_POINT ( 'NONE',  ( 0.0000000000000000000, 0.0000000000000000000, 0.2400000000000064900 ) ) ;
#152 = CARTESIAN_POINT ( 'NONE',  ( -1.410000000000000400, 1.726751986797768600E-016, -0.2999999999999929900 ) ) ;
#153 = ORIENTED_EDGE ( 'NONE', *, *, #156, .T. ) ;
#154 = CARTESIAN_POINT ( 'NONE',  ( -3.000000000000002700, 3.673940397442062800E-016, -0.2399999999999930000 ) ) ;
#155 = PRODUCT ( '91166A190_Zinc-Plated Steel Washer', '91166A190_Zinc-Plated Steel Washer', '', ( #65 ) ) ;
#156 = EDGE_CURVE ( 'NONE', #432, #426, #90, .T. ) ;
#157 = CARTESIAN_POINT ( 'NONE',  ( 0.0000000000000000000, 0.0000000000000000000, -0.2999999999999929900 ) ) ;
#158 = EDGE_LOOP ( 'NONE', ( #249, #281, #23, #352 ) ) ;
#159 = DIRECTION ( 'NONE',  ( 0.0000000000000000000, 0.0000000000000000000, -1.000000000000000000 ) ) ;
#160 = CARTESIAN_POINT ( 'NONE',  ( -2.940000000000002600, 3.600461589493221300E-016, -0.2399999999999930000 ) ) ;
#161 = AXIS2_PLACEMENT_3D ( 'NONE', #327, #193, #55 ) ;
#162 = CARTESIAN_POINT ( 'NONE',  ( 1.410000000000000400, 0.0000000000000000000, -0.2399999999999930000 ) ) ;
#163 = VECTOR ( 'NONE', #408, 1000.000000000000000 ) ;
#164 = VERTEX_POINT ( 'NONE', #318 ) ;
#165 =( NAMED_UNIT ( * ) SI_UNIT ( $, .STERADIAN. ) SOLID_ANGLE_UNIT ( ) );
#166 = DIRECTION ( 'NONE',  ( -1.000000000000000000, 1.224646799147355700E-016, 0.0000000000000000000 ) ) ;
#167 = PERSON_AND_ORGANIZATION_ROLE ( 'creator' ) ;
#168 = LINE ( 'NONE', #123, #163 ) ;
#169 = CARTESIAN_POINT ( 'NONE',  ( 0.0000000000000000000, 0.0000000000000000000, 0.3000000000000064300 ) ) ;
#170 = LOCAL_TIME ( 13, 25, 34.00000000000000000, #389 ) ;
#171 = TOROIDAL_SURFACE ( 'NONE', #428, 1.410000000000000400, 0.05999999999999999800 ) ;
#172 = ORIENTED_EDGE ( 'NONE', *, *, #22, .T. ) ;
#173 = AXIS2_PLACEMENT_3D ( 'NONE', #439, #269, #149 ) ;
#174 = PRODUCT_DEFINITION ( 'UNKNOWN', '', #457, #107 ) ;
#175 = DIRECTION ( 'NONE',  ( -0.0000000000000000000, -0.0000000000000000000, -1.000000000000000000 ) ) ;
#176 = CALENDAR_DATE ( 2022, 23, 11 ) ;
#177 = CC_DESIGN_PERSON_AND_ORGANIZATION_ASSIGNMENT ( #56, #134, ( #457 ) ) ;
#178 = ORIENTED_EDGE ( 'NONE', *, *, #181, .T. ) ;
#179 = ADVANCED_FACE ( 'NONE', ( #391 ), #305, .T. ) ;
#180 = COORDINATED_UNIVERSAL_TIME_OFFSET ( 6, 0, .BEHIND. ) ;
#181 = EDGE_CURVE ( 'NONE', #438, #293, #35, .T. ) ;
#182 = FACE_OUTER_BOUND ( 'NONE', #29, .T. ) ;
#183 = ORIENTED_EDGE ( 'NONE', *, *, #295, .F. ) ;
#184 = LINE ( 'NONE', #308, #85 ) ;
#185 = DIRECTION ( 'NONE',  ( 0.0000000000000000000, 0.0000000000000000000, -1.000000000000000000 ) ) ;
#186 = LOCAL_TIME ( 13, 25, 34.00000000000000000, #398 ) ;
#187 = AXIS2_PLACEMENT_3D ( 'NONE', #162, #62, #159 ) ;
#188 = DIRECTION ( 'NONE',  ( 1.000000000000000000, 0.0000000000000000000, 0.0000000000000000000 ) ) ;
#189 = EDGE_LOOP ( 'NONE', ( #223, #178, #183, #139 ) ) ;
#190 = VERTEX_POINT ( 'NONE', #273 ) ;
#191 = DIRECTION ( 'NONE',  ( 1.000000000000000000, 0.0000000000000000000, 0.0000000000000000000 ) ) ;
#192 = DIRECTION ( 'NONE',  ( -0.0000000000000000000, -0.0000000000000000000, -1.000000000000000000 ) ) ;
#193 = DIRECTION ( 'NONE',  ( 0.0000000000000000000, 0.0000000000000000000, 1.000000000000000000 ) ) ;
#194 = DIRECTION ( 'NONE',  ( 0.0000000000000000000, 0.0000000000000000000, 1.000000000000000000 ) ) ;
#195 = PERSON ( 'UNSPECIFIED', 'UNSPECIFIED', 'UNSPECIFIED', ('UNSPECIFIED'), ('UNSPECIFIED'), ('UNSPECIFIED') ) ;
#196 = CYLINDRICAL_SURFACE ( 'NONE', #88, 3.000000000000002700 ) ;
#197 = AXIS2_PLACEMENT_3D ( 'NONE', #151, #192, #372 ) ;
#198 = DIRECTION ( 'NONE',  ( 1.000000000000000000, 0.0000000000000000000, 0.0000000000000000000 ) ) ;
#199 = CC_DESIGN_DATE_AND_TIME_ASSIGNMENT ( #309, #37, ( #174 ) ) ;
#200 = SHAPE_DEFINITION_REPRESENTATION ( #348, #59 ) ;
#201 = DIRECTION ( 'NONE',  ( 0.0000000000000000000, 0.0000000000000000000, 1.000000000000000000 ) ) ;
#202 = TOROIDAL_SURFACE ( 'NONE', #350, 1.410000000000000400, 0.05999999999999999800 ) ;
#203 = ORIENTED_EDGE ( 'NONE', *, *, #286, .T. ) ;
#204 = CARTESIAN_POINT ( 'NONE',  ( 0.0000000000000000000, 0.0000000000000000000, 0.0000000000000000000 ) ) ;
#205 = CC_DESIGN_PERSON_AND_ORGANIZATION_ASSIGNMENT ( #388, #383, ( #155 ) ) ;
#206 = FACE_OUTER_BOUND ( 'NONE', #2, .T. ) ;
#207 = PERSON_AND_ORGANIZATION ( #195, #125 ) ;
#208 = PLANE ( 'NONE',  #103 ) ;
#209 = APPROVAL_STATUS ( 'not_yet_approved' ) ;
#210 = ORIENTED_EDGE ( 'NONE', *, *, #374, .T. ) ;
#211 = EDGE_CURVE ( 'NONE', #10, #217, #42, .T. ) ;
#212 = CALENDAR_DATE ( 2022, 23, 11 ) ;
#213 = FACE_OUTER_BOUND ( 'NONE', #82, .T. ) ;
#214 = VERTEX_POINT ( 'NONE', #18 ) ;
#215 = AXIS2_PLACEMENT_3D ( 'NONE', #229, #362, #119 ) ;
#216 = FACE_OUTER_BOUND ( 'NONE', #189, .T. ) ;
#217 = VERTEX_POINT ( 'NONE', #446 ) ;
#218 = CARTESIAN_POINT ( 'NONE',  ( 3.000000000000002700, 0.0000000000000000000, -0.2399999999999930000 ) ) ;
#219 = CIRCLE ( 'NONE', #381, 2.940000000000002600 ) ;
#220 = DATE_AND_TIME ( #279, #363 ) ;
#221 = EDGE_CURVE ( 'NONE', #60, #96, #15, .T. ) ;
#222 = APPROVAL ( #209, 'UNSPECIFIED' ) ;
#223 = ORIENTED_EDGE ( 'NONE', *, *, #274, .F. ) ;
#224 = VERTEX_POINT ( 'NONE', #437 ) ;
#225 = CIRCLE ( 'NONE', #136, 1.410000000000000400 ) ;
#226 = CC_DESIGN_DATE_AND_TIME_ASSIGNMENT ( #112, #285, ( #40 ) ) ;
#227 = DIRECTION ( 'NONE',  ( 0.0000000000000000000, 0.0000000000000000000, 1.000000000000000000 ) ) ;
#228 = DIRECTION ( 'NONE',  ( 0.0000000000000000000, -1.000000000000000000, 0.0000000000000000000 ) ) ;
#229 = CARTESIAN_POINT ( 'NONE',  ( 0.0000000000000000000, 0.0000000000000000000, -0.2999999999999929900 ) ) ;
#230 = VECTOR ( 'NONE', #142, 1000.000000000000000 ) ;
#231 = AXIS2_PLACEMENT_3D ( 'NONE', #433, #246, #17 ) ;
#232 = DIRECTION ( 'NONE',  ( 0.0000000000000000000, 0.0000000000000000000, 1.000000000000000000 ) ) ;
#233 = CARTESIAN_POINT ( 'NONE',  ( 0.0000000000000000000, 0.0000000000000000000, -0.2399999999999930000 ) ) ;
#234 = CARTESIAN_POINT ( 'NONE',  ( 0.0000000000000000000, 0.0000000000000000000, 0.2400000000000064900 ) ) ;
#235 = CIRCLE ( 'NONE', #254, 1.350000000000000500 ) ;
#236 = ORIENTED_EDGE ( 'NONE', *, *, #286, .F. ) ;
#237 = APPLICATION_CONTEXT ( 'configuration controlled 3d designs of mechanical parts and assemblies' ) ;
#238 = AXIS2_PLACEMENT_3D ( 'NONE', #157, #330, #121 ) ;
#239 = DIRECTION ( 'NONE',  ( 1.000000000000000000, 0.0000000000000000000, 0.0000000000000000000 ) ) ;
#240 =( NAMED_UNIT ( * ) PLANE_ANGLE_UNIT ( ) SI_UNIT ( $, .RADIAN. ) );
#241 = EDGE_LOOP ( 'NONE', ( #271, #110, #6, #301 ) ) ;
#242 = APPLICATION_CONTEXT ( 'configuration controlled 3d designs of mechanical parts and assemblies' ) ;
#243 = PRODUCT_RELATED_PRODUCT_CATEGORY ( 'detail', '', ( #155 ) ) ;
#244 = PERSON_AND_ORGANIZATION_ROLE ( 'classification_officer' ) ;
#245 = DIRECTION ( 'NONE',  ( 0.0000000000000000000, 0.0000000000000000000, 1.000000000000000000 ) ) ;
#246 = DIRECTION ( 'NONE',  ( 1.224646799147353200E-016, 1.000000000000000000, -0.0000000000000000000 ) ) ;
#247 = FACE_OUTER_BOUND ( 'NONE', #146, .T. ) ;
#248 = AXIS2_PLACEMENT_3D ( 'NONE', #409, #175, #36 ) ;
#249 = ORIENTED_EDGE ( 'NONE', *, *, #361, .F. ) ;
#250 = APPROVAL_DATE_TIME ( #94, #322 ) ;
#251 = CC_DESIGN_SECURITY_CLASSIFICATION ( #40, ( #457 ) ) ;
#252 = ORIENTED_EDGE ( 'NONE', *, *, #122, .F. ) ;
#253 = ADVANCED_FACE ( 'NONE', ( #105 ), #202, .T. ) ;
#254 = AXIS2_PLACEMENT_3D ( 'NONE', #332, #52, #50 ) ;
#255 = PERSON_AND_ORGANIZATION ( #195, #125 ) ;
#256 = ADVANCED_FACE ( 'NONE', ( #379 ), #290, .F. ) ;
#257 = ORIENTED_EDGE ( 'NONE', *, *, #442, .F. ) ;
#258 = CARTESIAN_POINT ( 'NONE',  ( 0.0000000000000000000, 0.0000000000000000000, -0.2399999999999930000 ) ) ;
#259 = AXIS2_PLACEMENT_3D ( 'NONE', #117, #371, #335 ) ;
#260 = CARTESIAN_POINT ( 'NONE',  ( 0.0000000000000000000, 0.0000000000000000000, 0.2400000000000064900 ) ) ;
#261 = EDGE_CURVE ( 'NONE', #164, #263, #351, .T. ) ;
#262 = DIRECTION ( 'NONE',  ( 0.0000000000000000000, -1.000000000000000000, 0.0000000000000000000 ) ) ;
#263 = VERTEX_POINT ( 'NONE', #54 ) ;
#264 = CARTESIAN_POINT ( 'NONE',  ( 0.0000000000000000000, 0.0000000000000000000, -0.2999999999999929900 ) ) ;
#265 = FACE_OUTER_BOUND ( 'NONE', #310, .T. ) ;
#266 = DIRECTION ( 'NONE',  ( 0.0000000000000000000, 0.0000000000000000000, -1.000000000000000000 ) ) ;
#267 = DIRECTION ( 'NONE',  ( 0.0000000000000000000, 0.0000000000000000000, 1.000000000000000000 ) ) ;
#268 = PLANE ( 'NONE',  #259 ) ;
#269 = DIRECTION ( 'NONE',  ( 1.224646799147353200E-016, 1.000000000000000000, -0.0000000000000000000 ) ) ;
#270 = DIRECTION ( 'NONE',  ( 1.000000000000000000, 0.0000000000000000000, 0.0000000000000000000 ) ) ;
#271 = ORIENTED_EDGE ( 'NONE', *, *, #156, .F. ) ;
#272 = ORIENTED_EDGE ( 'NONE', *, *, #9, .T. ) ;
#273 = CARTESIAN_POINT ( 'NONE',  ( 1.410000000000000400, 0.0000000000000000000, -0.2999999999999929900 ) ) ;
#274 = EDGE_CURVE ( 'NONE', #438, #10, #235, .T. ) ;
#275 = DIRECTION ( 'NONE',  ( -0.0000000000000000000, -0.0000000000000000000, -1.000000000000000000 ) ) ;
#276 = APPROVAL ( #315, 'UNSPECIFIED' ) ;
#277 = CARTESIAN_POINT ( 'NONE',  ( 0.0000000000000000000, 0.0000000000000000000, 0.3000000000000064300 ) ) ;
#278 = DIRECTION ( 'NONE',  ( 1.000000000000000000, 0.0000000000000000000, 0.0000000000000000000 ) ) ;
#279 = CALENDAR_DATE ( 2022, 23, 11 ) ;
#280 = ORIENTED_EDGE ( 'NONE', *, *, #22, .F. ) ;
#281 = ORIENTED_EDGE ( 'NONE', *, *, #274, .T. ) ;
#282 = APPLICATION_PROTOCOL_DEFINITION ( 'international standard', 'config_control_design', 1994, #237 ) ;
#283 = APPROVAL_ROLE ( '' ) ;
#284 = DIRECTION ( 'NONE',  ( 1.224646799147353200E-016, 1.000000000000000000, -0.0000000000000000000 ) ) ;
#285 = DATE_TIME_ROLE ( 'classification_date' ) ;
#286 = EDGE_CURVE ( 'NONE', #96, #60, #71, .T. ) ;
#287 = CIRCLE ( 'NONE', #197, 3.000000000000002700 ) ;
#288 = EDGE_LOOP ( 'NONE', ( #422, #74, #417, #257 ) ) ;
#289 = LOCAL_TIME ( 13, 25, 34.00000000000000000, #429 ) ;
#290 = CYLINDRICAL_SURFACE ( 'NONE', #238, 1.350000000000000500 ) ;
#291 = CARTESIAN_POINT ( 'NONE',  ( 3.000000000000002700, 0.0000000000000000000, -0.2999999999999929900 ) ) ;
#292 = AXIS2_PLACEMENT_3D ( 'NONE', #83, #89, #334 ) ;
#293 = VERTEX_POINT ( 'NONE', #152 ) ;
#294 = ADVANCED_FACE ( 'NONE', ( #365 ), #443, .T. ) ;
#295 = EDGE_CURVE ( 'NONE', #190, #293, #452, .T. ) ;
#296 = CIRCLE ( 'NONE', #384, 1.350000000000000500 ) ;
#297 = AXIS2_PLACEMENT_3D ( 'NONE', #169, #33, #137 ) ;
#298 = DIRECTION ( 'NONE',  ( 0.0000000000000000000, 0.0000000000000000000, 1.000000000000000000 ) ) ;
#299 = APPROVAL_DATE_TIME ( #26, #222 ) ;
#300 = ORIENTED_EDGE ( 'NONE', *, *, #454, .F. ) ;
#301 = ORIENTED_EDGE ( 'NONE', *, *, #69, .F. ) ;
#302 = DIRECTION ( 'NONE',  ( 0.0000000000000000000, 0.0000000000000000000, 1.000000000000000000 ) ) ;
#303 = TOROIDAL_SURFACE ( 'NONE', #312, 1.410000000000000400, 0.05999999999999999800 ) ;
#304 = DIRECTION ( 'NONE',  ( 0.0000000000000000000, 0.0000000000000000000, -1.000000000000000000 ) ) ;
#305 = TOROIDAL_SURFACE ( 'NONE', #39, 2.940000000000002600, 0.05999999999999999800 ) ;
#306 = AXIS2_PLACEMENT_3D ( 'NONE', #440, #262, #266 ) ;
#307 = CIRCLE ( 'NONE', #11, 2.940000000000002600 ) ;
#308 = CARTESIAN_POINT ( 'NONE',  ( -1.350000000000000500, 1.653273178848927400E-016, -0.2999999999999929900 ) ) ;
#309 = DATE_AND_TIME ( #212, #289 ) ;
#310 = EDGE_LOOP ( 'NONE', ( #331, #144 ) ) ;
#311 = ORIENTED_EDGE ( 'NONE', *, *, #109, .T. ) ;
#312 = AXIS2_PLACEMENT_3D ( 'NONE', #31, #313, #239 ) ;
#313 = DIRECTION ( 'NONE',  ( 0.0000000000000000000, 0.0000000000000000000, 1.000000000000000000 ) ) ;
#314 = CARTESIAN_POINT ( 'NONE',  ( 0.0000000000000000000, 0.0000000000000000000, 0.2400000000000064900 ) ) ;
#315 = APPROVAL_STATUS ( 'not_yet_approved' ) ;
#316 = ORIENTED_EDGE ( 'NONE', *, *, #328, .T. ) ;
#317 = APPROVAL_ROLE ( '' ) ;
#318 = CARTESIAN_POINT ( 'NONE',  ( 3.000000000000002700, 0.0000000000000000000, 0.2400000000000064900 ) ) ;
#319 = AXIS2_PLACEMENT_3D ( 'NONE', #366, #455, #38 ) ;
#320 = CLOSED_SHELL ( 'NONE', ( #179, #143, #394, #356, #75, #111, #397, #353, #256, #430, #104, #253, #427, #294 ) ) ;
#321 = ORIENTED_EDGE ( 'NONE', *, *, #211, .F. ) ;
#322 = APPROVAL ( #456, 'UNSPECIFIED' ) ;
#323 = ORIENTED_EDGE ( 'NONE', *, *, #447, .T. ) ;
#324 = FACE_OUTER_BOUND ( 'NONE', #423, .T. ) ;
#325 = ORIENTED_EDGE ( 'NONE', *, *, #328, .F. ) ;
#326 = DIRECTION ( 'NONE',  ( 0.0000000000000000000, 0.0000000000000000000, 1.000000000000000000 ) ) ;
#327 = CARTESIAN_POINT ( 'NONE',  ( 0.0000000000000000000, 0.0000000000000000000, -0.2999999999999929900 ) ) ;
#328 = EDGE_CURVE ( 'NONE', #293, #190, #225, .T. ) ;
#329 = DIRECTION ( 'NONE',  ( 1.000000000000000000, 0.0000000000000000000, 0.0000000000000000000 ) ) ;
#330 = DIRECTION ( 'NONE',  ( 0.0000000000000000000, 0.0000000000000000000, 1.000000000000000000 ) ) ;
#331 = ORIENTED_EDGE ( 'NONE', *, *, #396, .T. ) ;
#332 = CARTESIAN_POINT ( 'NONE',  ( 0.0000000000000000000, 0.0000000000000000000, -0.2399999999999930000 ) ) ;
#333 = FACE_OUTER_BOUND ( 'NONE', #47, .T. ) ;
#334 = DIRECTION ( 'NONE',  ( 1.000000000000000000, 0.0000000000000000000, 0.0000000000000000000 ) ) ;
#335 = DIRECTION ( 'NONE',  ( 1.000000000000000000, 0.0000000000000000000, -0.0000000000000000000 ) ) ;
#336 = UNCERTAINTY_MEASURE_WITH_UNIT (LENGTH_MEASURE( 1.000000000000000100E-005 ), #128, 'distance_accuracy_value', 'NONE');
#337 = DIRECTION ( 'NONE',  ( 1.000000000000000000, 0.0000000000000000000, 0.0000000000000000000 ) ) ;
#338 = ORIENTED_EDGE ( 'NONE', *, *, #221, .F. ) ;
#339 = ORIENTED_EDGE ( 'NONE', *, *, #393, .F. ) ;
#340 = AXIS2_PLACEMENT_3D ( 'NONE', #118, #228, #304 ) ;
#341 = DIRECTION ( 'NONE',  ( 1.000000000000000000, 0.0000000000000000000, 0.0000000000000000000 ) ) ;
#342 = CALENDAR_DATE ( 2022, 23, 11 ) ;
#343 = CARTESIAN_POINT ( 'NONE',  ( -1.350000000000000500, 1.653273178848927400E-016, 0.2400000000000064900 ) ) ;
#344 = CC_DESIGN_APPROVAL ( #322, ( #457 ) ) ;
#345 = ORIENTED_EDGE ( 'NONE', *, *, #109, .F. ) ;
#346 = DIRECTION ( 'NONE',  ( 1.000000000000000000, 0.0000000000000000000, 0.0000000000000000000 ) ) ;
#347 = FACE_BOUND ( 'NONE', #444, .T. ) ;
#348 = PRODUCT_DEFINITION_SHAPE ( 'NONE', 'NONE',  #174 ) ;
#349 = DIRECTION ( 'NONE',  ( 0.0000000000000000000, 0.0000000000000000000, 1.000000000000000000 ) ) ;
#350 = AXIS2_PLACEMENT_3D ( 'NONE', #19, #84, #278 ) ;
#351 = CIRCLE ( 'NONE', #340, 0.05999999999999999800 ) ;
#352 = ORIENTED_EDGE ( 'NONE', *, *, #393, .T. ) ;
#353 = ADVANCED_FACE ( 'NONE', ( #265, #347 ), #268, .F. ) ;
#354 = AXIS2_PLACEMENT_3D ( 'NONE', #160, #416, #445 ) ;
#355 = ORIENTED_EDGE ( 'NONE', *, *, #86, .T. ) ;
#356 = ADVANCED_FACE ( 'NONE', ( #135 ), #7, .T. ) ;
#357 = CIRCLE ( 'NONE', #420, 1.350000000000000500 ) ;
#358 = EDGE_CURVE ( 'NONE', #214, #217, #129, .T. ) ;
#359 = EDGE_LOOP ( 'NONE', ( #1, #252, #323, #325 ) ) ;
#360 = EDGE_LOOP ( 'NONE', ( #43, #210 ) ) ;
#361 = EDGE_CURVE ( 'NONE', #438, #426, #184, .T. ) ;
#362 = DIRECTION ( 'NONE',  ( -0.0000000000000000000, -0.0000000000000000000, -1.000000000000000000 ) ) ;
#363 = LOCAL_TIME ( 13, 25, 34.00000000000000000, #180 ) ;
#364 = DIRECTION ( 'NONE',  ( 1.000000000000000000, 0.0000000000000000000, 0.0000000000000000000 ) ) ;
#365 = FACE_OUTER_BOUND ( 'NONE', #288, .T. ) ;
#366 = CARTESIAN_POINT ( 'NONE',  ( 0.0000000000000000000, 0.0000000000000000000, -0.2399999999999930000 ) ) ;
#367 = DIRECTION ( 'NONE',  ( 0.0000000000000000000, 0.0000000000000000000, 1.000000000000000000 ) ) ;
#368 = ORIENTED_EDGE ( 'NONE', *, *, #450, .F. ) ;
#369 = CC_DESIGN_PERSON_AND_ORGANIZATION_ASSIGNMENT ( #150, #167, ( #457 ) ) ;
#370 = CARTESIAN_POINT ( 'NONE',  ( 0.0000000000000000000, 0.0000000000000000000, -0.2399999999999930000 ) ) ;
#371 = DIRECTION ( 'NONE',  ( 0.0000000000000000000, 0.0000000000000000000, 1.000000000000000000 ) ) ;
#372 = DIRECTION ( 'NONE',  ( 1.000000000000000000, 0.0000000000000000000, 0.0000000000000000000 ) ) ;
#373 = CIRCLE ( 'NONE', #248, 1.350000000000000500 ) ;
#374 = EDGE_CURVE ( 'NONE', #432, #214, #424, .T. ) ;
#375 = CARTESIAN_POINT ( 'NONE',  ( -3.000000000000002700, 3.673940397442062800E-016, 0.2400000000000064900 ) ) ;
#376 = DIRECTION ( 'NONE',  ( 0.0000000000000000000, 0.0000000000000000000, 1.000000000000000000 ) ) ;
#377 = APPROVAL_PERSON_ORGANIZATION ( #207, #276, #386 ) ;
#378 = DIRECTION ( 'NONE',  ( -0.0000000000000000000, -0.0000000000000000000, -1.000000000000000000 ) ) ;
#379 = FACE_OUTER_BOUND ( 'NONE', #158, .T. ) ;
#380 = ORIENTED_EDGE ( 'NONE', *, *, #9, .F. ) ;
#381 = AXIS2_PLACEMENT_3D ( 'NONE', #277, #201, #337 ) ;
#382 = CARTESIAN_POINT ( 'NONE',  ( 0.0000000000000000000, 0.0000000000000000000, -0.2999999999999929900 ) ) ;
#383 = PERSON_AND_ORGANIZATION_ROLE ( 'design_owner' ) ;
#384 = AXIS2_PLACEMENT_3D ( 'NONE', #260, #267, #14 ) ;
#385 = CARTESIAN_POINT ( 'NONE',  ( -1.410000000000000400, 1.726751986797768600E-016, 0.2400000000000064900 ) ) ;
#386 = APPROVAL_ROLE ( '' ) ;
#387 = VERTEX_POINT ( 'NONE', #375 ) ;
#388 = PERSON_AND_ORGANIZATION ( #195, #125 ) ;
#389 = COORDINATED_UNIVERSAL_TIME_OFFSET ( 6, 0, .BEHIND. ) ;
#390 = AXIS2_PLACEMENT_3D ( 'NONE', #25, #20, #191 ) ;
#391 = FACE_OUTER_BOUND ( 'NONE', #91, .T. ) ;
#392 = TOROIDAL_SURFACE ( 'NONE', #57, 1.410000000000000400, 0.05999999999999999800 ) ;
#393 = EDGE_CURVE ( 'NONE', #217, #426, #357, .T. ) ;
#394 = ADVANCED_FACE ( 'NONE', ( #216 ), #392, .T. ) ;
#395 = TOROIDAL_SURFACE ( 'NONE', #404, 2.940000000000002600, 0.05999999999999999800 ) ;
#396 = EDGE_CURVE ( 'NONE', #72, #224, #307, .T. ) ;
#397 = ADVANCED_FACE ( 'NONE', ( #333 ), #414, .T. ) ;
#398 = COORDINATED_UNIVERSAL_TIME_OFFSET ( 6, 0, .BEHIND. ) ;
#399 = CARTESIAN_POINT ( 'NONE',  ( 2.940000000000002600, 0.0000000000000000000, -0.2399999999999930000 ) ) ;
#400 = ORIENTED_EDGE ( 'NONE', *, *, #122, .T. ) ;
#401 = DIRECTION ( 'NONE',  ( 0.0000000000000000000, 0.0000000000000000000, 1.000000000000000000 ) ) ;
#402 = AXIS2_PLACEMENT_3D ( 'NONE', #453, #378, #92 ) ;
#403 = CARTESIAN_POINT ( 'NONE',  ( 1.350000000000000500, 0.0000000000000000000, -0.2999999999999929900 ) ) ;
#404 = AXIS2_PLACEMENT_3D ( 'NONE', #258, #79, #116 ) ;
#405 = ORIENTED_EDGE ( 'NONE', *, *, #21, .T. ) ;
#406 = CARTESIAN_POINT ( 'NONE',  ( 0.0000000000000000000, 0.0000000000000000000, 0.3000000000000064300 ) ) ;
#407 = CARTESIAN_POINT ( 'NONE',  ( 0.0000000000000000000, 0.0000000000000000000, -0.2999999999999929900 ) ) ;
#408 = DIRECTION ( 'NONE',  ( 0.0000000000000000000, 0.0000000000000000000, 1.000000000000000000 ) ) ;
#409 = CARTESIAN_POINT ( 'NONE',  ( 0.0000000000000000000, 0.0000000000000000000, -0.2399999999999930000 ) ) ;
#410 = ORIENTED_EDGE ( 'NONE', *, *, #450, .T. ) ;
#411 = AXIS2_PLACEMENT_3D ( 'NONE', #370, #401, #87 ) ;
#412 = ORIENTED_EDGE ( 'NONE', *, *, #454, .T. ) ;
#413 = DIRECTION ( 'NONE',  ( 1.000000000000000000, 0.0000000000000000000, 0.0000000000000000000 ) ) ;
#414 = CYLINDRICAL_SURFACE ( 'NONE', #73, 3.000000000000002700 ) ;
#415 = CARTESIAN_POINT ( 'NONE',  ( -2.940000000000002600, 3.637200993467642100E-016, 0.3000000000000064300 ) ) ;
#416 = DIRECTION ( 'NONE',  ( 1.224646799147353200E-016, 1.000000000000000000, -0.0000000000000000000 ) ) ;
#417 = ORIENTED_EDGE ( 'NONE', *, *, #261, .T. ) ;
#418 = SECURITY_CLASSIFICATION_LEVEL ( 'unclassified' ) ;
#419 = DIRECTION ( 'NONE',  ( 1.000000000000000000, 0.0000000000000000000, 0.0000000000000000000 ) ) ;
#420 = AXIS2_PLACEMENT_3D ( 'NONE', #234, #34, #341 ) ;
#421 = COORDINATED_UNIVERSAL_TIME_OFFSET ( 6, 0, .BEHIND. ) ;
#422 = ORIENTED_EDGE ( 'NONE', *, *, #21, .F. ) ;
#423 = EDGE_LOOP ( 'NONE', ( #147, #412, #410, #380 ) ) ;
#424 = CIRCLE ( 'NONE', #390, 1.410000000000000400 ) ;
#425 =( GEOMETRIC_REPRESENTATION_CONTEXT ( 3 ) GLOBAL_UNCERTAINTY_ASSIGNED_CONTEXT ( ( #336 ) ) GLOBAL_UNIT_ASSIGNED_CONTEXT ( ( #128, #240, #165 ) ) REPRESENTATION_CONTEXT ( 'NONE', 'WORKASPACE' ) );
#426 = VERTEX_POINT ( 'NONE', #343 ) ;
#427 = ADVANCED_FACE ( 'NONE', ( #30 ), #303, .T. ) ;
#428 = AXIS2_PLACEMENT_3D ( 'NONE', #67, #101, #133 ) ;
#429 = COORDINATED_UNIVERSAL_TIME_OFFSET ( 6, 0, .BEHIND. ) ;
#430 = ADVANCED_FACE ( 'NONE', ( #100, #206 ), #208, .T. ) ;
#431 = CIRCLE ( 'NONE', #95, 0.05999999999999999800 ) ;
#432 = VERTEX_POINT ( 'NONE', #130 ) ;
#433 = CARTESIAN_POINT ( 'NONE',  ( -2.940000000000002600, 3.600461589493221300E-016, 0.2400000000000064900 ) ) ;
#434 = EDGE_CURVE ( 'NONE', #224, #96, #138, .T. ) ;
#435 = CIRCLE ( 'NONE', #402, 3.000000000000002700 ) ;
#436 = CARTESIAN_POINT ( 'NONE',  ( 0.0000000000000000000, 0.0000000000000000000, -0.2999999999999929900 ) ) ;
#437 = CARTESIAN_POINT ( 'NONE',  ( -2.940000000000002600, 3.637200993467642100E-016, -0.2999999999999929900 ) ) ;
#438 = VERTEX_POINT ( 'NONE', #63 ) ;
#439 = CARTESIAN_POINT ( 'NONE',  ( -1.410000000000000400, 1.726751986797768600E-016, -0.2399999999999930000 ) ) ;
#440 = CARTESIAN_POINT ( 'NONE',  ( 1.410000000000000400, 0.0000000000000000000, 0.2400000000000064900 ) ) ;
#441 = CARTESIAN_POINT ( 'NONE',  ( 0.0000000000000000000, 0.0000000000000000000, 0.2400000000000064900 ) ) ;
#442 = EDGE_CURVE ( 'NONE', #127, #263, #219, .T. ) ;
#443 = TOROIDAL_SURFACE ( 'NONE', #48, 2.940000000000002600, 0.05999999999999999800 ) ;
#444 = EDGE_LOOP ( 'NONE', ( #66, #316 ) ) ;
#445 = DIRECTION ( 'NONE',  ( -1.000000000000000000, 1.224646799147351500E-016, 0.0000000000000000000 ) ) ;
#446 = CARTESIAN_POINT ( 'NONE',  ( 1.350000000000000500, 0.0000000000000000000, 0.2400000000000064900 ) ) ;
#447 = EDGE_CURVE ( 'NONE', #10, #190, #41, .T. ) ;
#448 = APPROVAL_PERSON_ORGANIZATION ( #64, #222, #283 ) ;
#449 = DIRECTION ( 'NONE',  ( 0.0000000000000000000, 0.0000000000000000000, 1.000000000000000000 ) ) ;
#450 = EDGE_CURVE ( 'NONE', #387, #164, #435, .T. ) ;
#451 = EDGE_LOOP ( 'NONE', ( #97, #140, #338, #280 ) ) ;
#452 = CIRCLE ( 'NONE', #161, 1.410000000000000400 ) ;
#453 = CARTESIAN_POINT ( 'NONE',  ( 0.0000000000000000000, 0.0000000000000000000, 0.2400000000000064900 ) ) ;
#454 = EDGE_CURVE ( 'NONE', #96, #387, #168, .T. ) ;
#455 = DIRECTION ( 'NONE',  ( 0.0000000000000000000, 0.0000000000000000000, 1.000000000000000000 ) ) ;
#456 = APPROVAL_STATUS ( 'not_yet_approved' ) ;
#457 = PRODUCT_DEFINITION_FORMATION_WITH_SPECIFIED_SOURCE ( 'ANY', '', #155, .NOT_KNOWN. ) ;
ENDSEC;
END-ISO-10303-21;
